<svg width="238" height="238" viewBox="0 0 238 238" fill="none" xmlns="http://www.w3.org/2000/svg">
<rect width="238" height="238" rx="32" fill="black"/>
<g clip-path="url(#clip0_101_19)">
<path d="M152.888 117.622L139.035 106.735C138.187 106.07 138.187 104.979 139.035 104.313L152.889 93.4277C153.739 92.7618 154.095 91.6368 153.679 90.9291C153.263 90.2233 152.102 89.9721 151.101 90.3709L134.627 96.9323C133.626 97.335 132.682 96.7861 132.532 95.7163L130.055 78.1297C129.902 77.0605 129.098 76.1853 128.265 76.1853C127.437 76.1853 126.633 77.0605 126.484 78.129L124.006 95.7169C123.854 96.7868 122.912 97.3344 121.909 96.933L105.708 90.4805C104.703 90.0805 103.067 90.0805 102.065 90.4805L85.8608 96.933C84.8587 97.3344 83.9151 96.7868 83.7649 95.7169L81.2896 78.129C81.1367 77.0605 80.334 76.1853 79.5047 76.1853C78.6727 76.1853 77.868 77.0605 77.7184 78.129L75.2398 95.7169C75.0896 96.7868 74.1466 97.3344 73.1445 96.933L56.6717 90.3728C55.6703 89.9721 54.5107 90.2247 54.0947 90.9297C53.6794 91.6381 54.0335 92.7638 54.8815 93.4283L68.7368 104.313C69.5854 104.98 69.5854 106.071 68.7368 106.736L54.8815 117.622C54.0309 118.288 53.6787 119.48 54.0934 120.27C54.51 121.06 55.6696 121.378 56.6697 120.977L72.995 114.421C73.9984 114.02 74.9314 114.565 75.0716 115.635L77.4267 133.375C77.5689 134.443 78.5019 135.318 79.5 135.318C80.4968 135.318 81.4305 134.444 81.5733 133.375L83.9324 115.635C84.0719 114.565 85.0089 114.021 86.007 114.421L102.065 120.865C103.065 121.268 104.703 121.268 105.704 120.865L121.759 114.421C122.758 114.02 123.693 114.565 123.836 115.635L126.195 133.375C126.336 134.443 127.269 135.318 128.265 135.318C129.263 135.318 130.196 134.444 130.338 133.375L132.697 115.635C132.841 114.565 133.774 114.021 134.773 114.421L151.1 120.977C152.097 121.378 153.26 121.06 153.676 120.27C154.093 119.482 153.738 118.29 152.889 117.624L152.888 117.622ZM117.642 106.873L105.441 116.266C104.587 116.924 103.186 116.924 102.335 116.266L90.1304 106.873C89.2771 106.215 89.2705 105.132 90.1171 104.464L102.344 94.8331C103.191 94.1653 104.579 94.1653 105.426 94.8331L117.654 104.464C118.502 105.131 118.495 106.214 117.64 106.874L117.642 106.873Z" fill="white"/>
</g>
<path fill-rule="evenodd" clip-rule="evenodd" d="M55.3846 105.538C55.3846 78.3916 77.3916 56.3846 104.538 56.3846C131.685 56.3846 153.692 78.3916 153.692 105.538C153.692 132.685 131.685 154.692 104.538 154.692C77.3916 154.692 55.3846 132.685 55.3846 105.538ZM104.538 40C68.3426 40 39 69.3426 39 105.538C39 141.734 68.3426 171.077 104.538 171.077C116.974 171.077 128.6 167.614 138.506 161.599C138.743 161.919 139.007 162.225 139.298 162.516L172.476 195.694C175.676 198.894 180.863 198.894 184.062 195.694C187.261 192.495 187.261 187.308 184.062 184.109L151.355 151.402C162.937 139.582 170.077 123.394 170.077 105.538C170.077 69.3426 140.734 40 104.538 40Z" fill="white"/>
<defs>
<clipPath id="clip0_101_19">
<rect width="99.9308" height="59.1332" fill="white" transform="translate(53.9206 76.1853)"/>
</clipPath>
</defs>
</svg>
